<?xml version="1.0" encoding="utf-8"?>
<!-- Generator: Adobe Illustrator 15.1.0, SVG Export Plug-In . SVG Version: 6.00 Build 0)  -->
<!DOCTYPE svg PUBLIC "-//W3C//DTD SVG 1.1//EN" "http://www.w3.org/Graphics/SVG/1.1/DTD/svg11.dtd">
<svg version="1.1" id="Layer_1" xmlns="http://www.w3.org/2000/svg" xmlns:xlink="http://www.w3.org/1999/xlink" x="0px" y="0px"
	 width="28.346px" height="50.43px" viewBox="0 0 28.346 50.43" enable-background="new 0 0 28.346 50.43" xml:space="preserve">
<g>
	<g>
		<g>
			<path fill="#73BF44" d="M1.496,39.733C0.619,39.114,0,37.977,0,36.737c0-2.065,1.652-3.665,3.718-3.665
				c1.03,0,1.755,0.361,2.271,0.723c2.735,2.014,5.731,3.252,9.241,3.252c3.252,0,5.215-1.29,5.215-3.407v-0.102
				c0-2.015-1.238-3.048-7.279-4.596c-7.281-1.859-11.98-3.874-11.98-11.049v-0.106c0-6.558,5.267-10.894,12.651-10.894
				c4.388,0,8.21,1.136,11.462,3.201c0.878,0.517,1.756,1.601,1.756,3.149c0,2.067-1.652,3.665-3.717,3.665
				c-0.775,0-1.396-0.205-2.015-0.566c-2.633-1.549-5.112-2.428-7.589-2.428c-3.047,0-4.648,1.396-4.648,3.15v0.103
				c0,2.376,1.549,3.151,7.797,4.752c7.331,1.908,11.463,4.541,11.463,10.843v0.102c0,7.178-5.473,11.204-13.27,11.204
				C10.326,44.068,5.523,42.623,1.496,39.733z"/>
		</g>
	</g>
	
		<line fill="none" stroke="#73BF44" stroke-width="6.6687" stroke-linecap="round" stroke-linejoin="round" stroke-miterlimit="10" x1="14.742" y1="3.334" x2="14.742" y2="47.096"/>
</g>
</svg>
