<?xml version="1.0" encoding="utf-8"?>
<!-- Generator: Adobe Illustrator 15.1.0, SVG Export Plug-In . SVG Version: 6.00 Build 0)  -->
<!DOCTYPE svg PUBLIC "-//W3C//DTD SVG 1.1//EN" "http://www.w3.org/Graphics/SVG/1.1/DTD/svg11.dtd">
<svg version="1.1" id="Layer_1" xmlns="http://www.w3.org/2000/svg" xmlns:xlink="http://www.w3.org/1999/xlink" x="0px" y="0px"
	 width="88.333px" height="63.234px" viewBox="0 0 88.333 63.234" enable-background="new 0 0 88.333 63.234" xml:space="preserve">
<g>
	<path fill="none" stroke="#52B3E5" stroke-width="4" stroke-linecap="round" stroke-linejoin="round" stroke-miterlimit="10" d="
		M80.201,32.045h-3.208l-9.593-0.03l0.006-5.021c-0.019-1.508-0.979-2.889-2.52-3.533c-0.68-0.297-1.401-0.411-2.121-0.383
		c-0.365,0.054-0.716,0.121-1.067,0.159c-0.549,0.153-1.056,0.37-1.518,0.705L38.842,39.09c-0.124,0.077-0.235,0.18-0.357,0.278
		c-0.006,0.006-0.013,0.011-0.013,0.011c-1.732,1.546-1.739,4.035-0.005,5.563c0.208,0.191,0.437,0.362,0.678,0.493l21.018,14.951
		c0.689,0.502,1.527,0.774,2.367,0.848c0.616-0.063,1.232-0.117,1.836-0.18c0.173-0.056,0.347-0.118,0.494-0.177
		c1.54-0.667,2.532-2.038,2.52-3.552l0.007-4.945l12.813-0.008c3.388,0,6.133-2.435,6.133-5.437v-9.453
		C86.333,34.482,83.588,32.045,80.201,32.045z"/>
	
		<line fill="none" stroke="#5A538D" stroke-width="4" stroke-linecap="round" stroke-linejoin="round" x1="77.749" y1="39.401" x2="77.749" y2="44.906"/>
</g>
<g>
	<path fill="none" stroke="#73BF44" stroke-width="4" stroke-linecap="round" stroke-linejoin="round" stroke-miterlimit="10" d="
		M8.134,31.189h3.207l9.594,0.03l-0.006,5.021c0.019,1.508,0.98,2.89,2.521,3.534c0.678,0.297,1.4,0.41,2.121,0.382
		c0.364-0.054,0.714-0.12,1.067-0.159c0.548-0.153,1.055-0.369,1.518-0.704l21.339-15.147c0.122-0.078,0.234-0.181,0.356-0.279
		c0.006-0.006,0.013-0.011,0.013-0.011c1.732-1.546,1.738-4.034,0.004-5.563c-0.207-0.191-0.437-0.363-0.678-0.493L28.171,2.848
		C27.48,2.344,26.643,2.073,25.804,2c-0.617,0.062-1.232,0.116-1.837,0.181c-0.172,0.054-0.345,0.116-0.492,0.175
		c-1.542,0.667-2.534,2.039-2.521,3.552l-0.006,4.945L8.134,10.86C4.746,10.86,2,13.296,2,16.299v9.452
		C2,28.752,4.746,31.189,8.134,31.189z"/>
	
		<line fill="none" stroke="#5A538D" stroke-width="4" stroke-linecap="round" stroke-linejoin="round" x1="10.502" y1="18.328" x2="10.502" y2="23.833"/>
</g>
</svg>
